<svg width="182" height="130" viewBox="0 0 182 130" fill="none" xmlns="http://www.w3.org/2000/svg">
<g filter="url(#filter0_d_255652_4038)">
<path d="M117.013 32.2891C120.386 36.9832 124.759 38.0827 130.108 37.3662C130.108 38.4409 130.108 39.4786 130.108 40.5162C130.108 43.061 130.935 45.3216 132.208 47.5081C133.332 49.4352 134.95 50.2258 137.112 50.164C140.039 50.0899 142.77 49.4228 145.438 47.6316C146.673 50.7693 147.847 53.9317 151.207 55.797C150.737 57.057 150.416 58.28 149.848 59.3794C145.166 68.533 139.002 76.5502 131.244 83.3073C125.129 88.6315 118.854 93.7457 111.862 97.8963C99.6572 105.135 86.5012 109.632 72.468 111.707C56.8167 114.017 41.3506 112.559 25.934 109.743C24.4639 109.471 22.9321 108.656 21.808 107.655C19.8315 105.901 20.3998 103.431 22.9074 102.541C24.2786 102.047 25.7857 101.775 27.2434 101.689C41.2888 100.873 53.8643 95.5369 66.0321 89.0392C76.6681 83.3444 85.9823 75.9078 93.9254 66.816C99.8425 60.0341 104.969 52.647 109.515 44.8645C111.899 40.7756 114.37 36.7362 117.026 32.2891H117.013ZM141.917 59.7129C141.868 57.6253 139.706 56.1799 138.149 57.23C137.001 57.9958 135.963 59.2188 135.37 60.4788C132.961 65.6054 130.219 70.4354 125.722 74.0549C125.191 74.4749 124.734 75.0308 124.351 75.5867C123.61 76.6367 123.882 77.6496 124.697 78.5267C125.772 79.6879 126.995 79.6632 128.576 78.292C133.999 73.5854 138.174 67.9277 141.299 61.4671C141.596 60.8494 141.769 60.1823 141.942 59.7253L141.917 59.7129ZM107.477 88.2486C105.871 89.3851 104.351 90.2868 103.042 91.411C101.868 92.4239 101.967 93.4616 102.931 94.8081C103.808 96.031 104.858 95.9693 106.044 95.3763C108.774 94.0175 109.404 91.621 107.464 88.2362L107.477 88.2486ZM119.57 84.5797C119.089 83.2209 118.088 82.5167 116.667 82.6526C115.099 82.8009 113.863 83.7026 113.246 85.1109C112.999 85.6791 113.27 86.6921 113.666 87.248C113.95 87.6309 114.889 87.8039 115.444 87.6803C117.211 87.285 118.755 86.4574 119.57 84.5797Z" fill="white"/>
<path d="M130.861 14.3274C124.042 15.5874 117.841 19.9357 114.333 25.927C104.549 21.2822 93.0236 25.6799 82.2023 25.0993C78.1628 24.8769 74.1851 23.9505 70.1457 23.8146C60.9055 23.5181 51.9619 27.4093 44.4389 32.7706C36.9158 38.1318 30.554 44.926 23.9204 51.3496C23.1051 52.1402 22.2527 52.9432 21.1904 53.3632C20.1527 53.7832 19.0039 53.7955 17.8921 53.7955C15.3103 53.8079 12.7285 53.7955 10.1467 53.7955C8.68902 53.7955 4.88427 54.512 4.11838 52.8196C3.35249 51.1273 6.51488 48.8666 7.52783 47.7919L12.9014 42.0601C19.9674 34.5247 27.0457 26.9893 34.1117 19.4416C39.5718 13.6233 45.1924 7.68144 52.3572 4.16081C58.3608 1.20842 65.4268 0.146059 71.838 2.04843C76.2357 3.34551 80.337 6.00142 84.92 6.07554C90.1206 6.16201 94.753 2.91315 99.7807 1.60372C105.463 0.133705 111.603 1.20842 116.902 3.72846C122.202 6.24849 126.76 10.115 130.849 14.3151L130.861 14.3274Z" fill="white"/>
<path d="M157.396 59.1686C157.643 58.9586 157.914 58.7857 158.211 58.6621C158.915 58.3657 159.706 58.3904 160.471 58.4151C163.696 58.5139 166.932 58.6127 170.156 58.7115C162.522 78.4147 146.858 94.2514 128.885 105.369C110.701 116.61 88.9965 123.59 67.885 120.205C66.7856 120.032 64.3273 120.057 63.9938 118.661C63.6356 117.105 66.3038 117.315 67.2303 117.228C103.363 114.016 137.396 92.522 155.814 61.2686C156.259 60.5151 156.728 59.7245 157.383 59.181L157.396 59.1686Z" fill="white"/>
<path d="M145.882 21.1709C147.501 18.6632 148.934 16.3161 150.478 14.0432C155.58 6.58189 162.609 2.08537 171.515 0.516525C171.997 0.430054 172.491 0.355935 172.973 0.318876C174.628 0.195345 176.234 0.417701 177.099 1.9989C178.087 3.79009 178.383 5.7913 177.37 7.65661C177.025 8.31133 176.049 8.80545 175.27 9.0031C174.344 9.23781 173.306 9.10192 172.33 9.06487C167.402 8.83016 163.214 10.5966 159.755 13.9814C156.506 17.1808 153.986 20.9485 151.96 25.3462C156.098 29.2745 159.545 33.6105 159.681 39.7252C159.792 44.5553 158.656 49.0765 156.63 53.6225C153.887 51.856 151.515 49.8301 150.49 46.89C149.527 44.1229 149.218 41.1211 148.514 37.687C147.031 39.2064 145.932 40.3058 144.857 41.4176C143.313 42.9988 141.596 44.2712 139.323 44.6047C137.384 44.8888 136.63 44.4441 136.025 42.5294C135.148 39.7623 135.728 37.0693 136.581 34.4134C136.964 33.2028 137.384 32.0046 137.989 30.201C136.741 30.5222 135.938 30.6457 135.209 30.9422C132.899 31.8934 130.54 32.3875 128.02 32.3628C125.45 32.3381 123.462 31.214 121.782 29.4351C120.188 27.7551 120.262 26.3221 122.177 24.988C128.983 20.2444 136.284 18.0456 144.499 20.8744C144.857 20.998 145.252 21.035 145.845 21.1585L145.882 21.1709Z" fill="white"/>
<path d="M51.9867 88.5077C49.936 89.953 47.4901 90.7189 45.0936 91.4601C41.0295 92.7201 36.9776 93.9801 32.9135 95.2278C32.0117 95.5119 31.0358 95.7837 30.1464 95.4872C29.3805 95.2278 28.8123 94.5978 28.2934 93.9925C23.5128 88.4707 18.9792 82.7141 14.7421 76.7599C12.5803 73.7334 10.4926 70.6575 8.47906 67.5322C7.71317 66.3586 2.66075 59.9968 5.46491 59.9103C9.6526 59.7868 13.8403 59.6632 18.028 59.5397C18.7074 59.515 19.4239 59.5027 20.0292 59.8115C20.721 60.1574 21.1657 60.8491 21.5733 61.5039C28.9234 73.1281 39.683 82.5906 52.1596 88.3842C52.1102 88.4212 52.0484 88.4583 51.999 88.4954L51.9867 88.5077Z" fill="white"/>
<path d="M159.199 53.7088C159.879 50.5711 161.2 47.4581 162.213 44.3945C165.499 46.7293 168.056 50.0893 169.44 53.8817C166.487 53.8817 161.892 54.7217 159.211 53.7088H159.199Z" fill="white"/>
</g>
<defs>
<filter id="filter0_d_255652_4038" x="0" y="0.290039" width="182" height="128.772" filterUnits="userSpaceOnUse" color-interpolation-filters="sRGB">
<feFlood flood-opacity="0" result="BackgroundImageFix"/>
<feColorMatrix in="SourceAlpha" type="matrix" values="0 0 0 0 0 0 0 0 0 0 0 0 0 0 0 0 0 0 127 0" result="hardAlpha"/>
<feOffset dy="4"/>
<feGaussianBlur stdDeviation="2"/>
<feComposite in2="hardAlpha" operator="out"/>
<feColorMatrix type="matrix" values="0 0 0 0 0 0 0 0 0 0 0 0 0 0 0 0 0 0 0.25 0"/>
<feBlend mode="normal" in2="BackgroundImageFix" result="effect1_dropShadow_255652_4038"/>
<feBlend mode="normal" in="SourceGraphic" in2="effect1_dropShadow_255652_4038" result="shape"/>
</filter>
</defs>
</svg>
