<?xml version="1.0" encoding="UTF-8"?>
<svg id="Layer_2" data-name="Layer 2" xmlns="http://www.w3.org/2000/svg" viewBox="0 0 185.43 185.32">
  <defs>
    <style>
      .cls-1 {
        fill: #000;
      }

      .cls-1, .cls-2, .cls-3 {
        stroke-width: 0px;
      }

      .cls-2 {
        fill: #06979b;
      }

      .cls-3 {
        fill: #fff;
      }
    </style>
  </defs>
  <g id="_图层_1" data-name=" 图层 1">
    <path class="cls-2" d="M93.25,185.32c-2.89-.12-5.39-.13-7.88-.33-8.6-.7-16.98-2.37-25.04-5.54-2.81-1.1-5.64-2.15-8.43-3.3-2.06-.85-3.9-2.13-5.78-3.3-3.2-1.99-6.4-3.98-9.41-6.26-7.26-5.51-13.53-11.98-18.86-19.36-7.87-10.9-13.19-22.95-15.96-36.11-.43-2.02-.64-4.09-.95-6.14-.17-1.11-.34-2.22-.51-3.33-.02-.1-.05-.2-.05-.3-.21-4.24-.54-8.48-.3-12.73.46-8.22,1.93-16.25,4.45-24.08,2.22-6.89,5.02-13.53,8.77-19.73,3.65-6.04,8-11.53,12.93-16.56,6.65-6.8,14.18-12.44,22.52-17,3.03-1.66,6.21-2.97,9.41-4.24,4.64-1.84,9.34-3.51,14.21-4.66,3.52-.84,7.07-1.51,10.69-1.76,2.59-.18,5.17-.43,7.76-.53,3.12-.13,6.24-.05,9.34.36,2.42.32,4.86.55,7.29.81,1.79.19,3.55.46,5.29.95,1.48.42,3.02.65,4.51,1.06,4.6,1.27,9.07,2.92,13.44,4.83,6.24,2.72,12.17,6,17.56,10.21,1.97,1.54,3.96,3.04,5.97,4.53,2.11,1.58,3.93,3.47,5.74,5.37,6.15,6.45,11.1,13.75,15.21,21.63,1.13,2.16,2.01,4.46,3.01,6.69,2.91,6.54,4.85,13.36,6.02,20.41.51,3.06.87,6.13,1.05,9.22.22,3.77.23,7.55.06,11.32-.32,7.44-1.62,14.73-3.74,21.86-1.3,4.36-2.82,8.63-4.8,12.74-.03.07-.07.13-.1.2-1.61,3.89-3.74,7.5-5.97,11.05-2.31,3.69-4.95,7.14-7.81,10.42-7.38,8.44-16.02,15.3-25.87,20.63-6.15,3.33-12.62,5.84-19.41,7.55-3.17.8-6.32,1.68-9.56,2.14-2.32.33-4.64.66-6.98.85-2.73.23-5.48.31-7.83.43h0ZM45.34,64.14c-.29-.15-.57-.3-.89-.46-.25.16-.51.31-.75.49-1.52,1.12-3.18,1.97-4.89,2.74-2.25,1.02-4.62,1.56-7.06,1.88-.79.1-1.32-.13-1.74-.84-.8-1.35-1.66-2.67-2.51-4-.24-.38-.53-.73-.4-1.23.02-.08-.11-.21-.18-.33-.58.22-1.06.5-1.23,1.03.36.33.74.58.99.93.93,1.3,1.82,2.63,2.72,3.95.12.18.22.38.38.66-.38.04-.67.09-.96.08-1.35-.04-2.69-.11-4.04-.14-.47-.01-.74-.22-.86-.67-.24-.87-.75-1.67-.65-2.72-.35.12-.61.18-.86.29-.59.26-.61.45-.15.9.51.5.77,1.11.74,1.86-.17.02-.27.05-.37.04-1.99-.29-3.9-.82-5.64-1.88-.31-.19-.64-.31-1.03-.5-.4,1.21-.77,2.31-1.15,3.47.34.19.6.37.9.49.76.31,1.53.6,2.31.88,2.21.79,4.47,1.45,6.83,1.55,1.39.06,2.79.03,4.19.02,2.63-.02,5.22-.4,7.76-1.1,5.37-1.47,9.91-4.27,13.52-8.55,3.33-3.94,4.88-8.48,4.65-13.63-.08-1.74-.26-3.48-.38-5.23-.03-.41-.21-.64-.59-.76-1.1-.33-2.19-.68-3.29-1.01-.15-.05-.32-.05-.6-.09.1.4.17.7.25,1.01.29,1.08.66,2.15.84,3.26.2,1.18.2,2.39.32,3.58.13,1.19,0,2.33-.34,3.47-.14.46-.1.98-.1,1.48,0,.26.11.52.19.84-1.8-2.79-3.56-5.51-5.31-8.22.63-.53.82-.84.03-1.25-.03-.27.16-.67-.27-.74-.3-.05-.62.06-1,.11-1.59-2.37-3.19-4.77-4.85-7.26.32.02.49,0,.66.04,1.24.26,2.52.43,3.72.82,3.44,1.1,6.86,2.28,10.28,3.46,2.71.94,5.47,1.54,8.35,1.57,2.47.02,4.88-.29,7.14-1.37,2.7-1.28,4.45-3.33,5.07-6.28.43-2.06.31-4.13-.06-6.18-.3-1.64-.66-3.28-1.01-4.91-.11-.51-.08-.99.09-1.47.28-.83.56-1.66.88-2.47.39-.97.76-1.96,1.51-2.74.41-.43.51-.46,1.04-.22.43.2.85.42,1.29.61.75.32.98.22,1.23-.53.19-.57.34-1.15.49-1.73.14-.54.1-.66-.37-.91-.66-.35-1.32-.72-2.02-.97-4.37-1.57-8.85-2.18-13.47-1.37-3.21.56-6.19,1.74-8.84,3.67-3.8,2.76-6.11,6.59-7.76,10.88-.84,2.18-1.14,4.49-1.36,6.81-.03.34.01.71-.31.98-.1,0-.19,0-.29-.03-1.28-.31-2.55-.67-3.85-.93-2.64-.52-5.29-.64-7.95-.08-2.87.6-5.46,1.76-7.61,3.79-1.72,1.63-3.1,3.53-4.24,5.59-2.08,3.75-3.1,7.83-3.62,12.04-.25,2.03-.4,4.07-.58,6.11-.05.57-.03,1.15-.03,1.72,0,.33.13.6.44.72.62.25,1.24.48,1.93.74.32-1.03.38-1.94.06-2.88-.24-.71-.45-1.43-.63-2.15-.1-.38.08-.71.37-.8.4-.14.51.19.67.44.16.26.19.61.51.81.06-.09.12-.14.13-.2.16-.78.33-1.56.48-2.35.09-.48,0-.93-.23-1.37-.25-.46-.45-.95-.67-1.42-.13-.29-.17-.59.12-.81.28-.22.57-.13.83.07.25.19.48.41.78.67.05-.21.09-.34.11-.48.24-1.22.35-2.49.75-3.66.53-1.56.64-1.28-.17-2.94-.17-.35-.23-.76-.29-1.15-.02-.14.08-.38.19-.42.12-.05.33.04.46.13.14.09.23.26.35.38.16.17.33.33.58.58.9-2.99,2.55-5.34,4.66-7.46.19.27.33.45.45.64,1.88,2.86,3.75,5.72,5.64,8.58.31.47.57.93.47,1.52,0,.03.06.07.14.17.59-.22,1.1-.6,1.57-1.04.09-.09.11-.35.05-.46-.07-.12-.28-.22-.43-.22-.24,0-.48.08-.71.12-.94-1.2-5.94-9.38-6.1-10.01,1.04-.56,2.1-1.1,3.25-1.44.26-.08.54-.13.81-.15,1.02-.08,2.04-.14,3.06-.23.61-.05,1.05.16,1.39.68,1.41,2.15,2.83,4.3,4.25,6.44.34.51.79.98.47,1.74.33-.05.56-.08.84-.13-.27.29-.5.54-.77.83.23.11.37.24.48.22.67-.14.91.29,1.2.76,1.58,2.55,3.18,5.08,4.78,7.62.06.1.12.21.2.36-.21-.05-.36-.08-.54-.12-1.15,2.2-2.65,4.08-4.44,5.74-.28.26-.27.51-.13.8.16.31.25.61-.11.85.16-.47,0-.86-.27-1.26-1.07-1.59-2.14-3.19-3.19-4.8-1.18-1.82-2.33-3.65-3.47-5.44.03-.12.03-.17.05-.22.03-.07.07-.13.11-.2.15-.24.17-.47-.07-.66-.27-.21-.53-.12-.74.08-.33.3-.63.63-.95.95-.21.21-.18.47.1.78.21-.08.42-.17.65-.26.13.19.24.33.33.47,1.89,2.88,3.78,5.75,5.65,8.64.46.71.94,1.4,1.63,1.92v-.02ZM84.99,5.02c.12.04.26.09.4.11.84.13,1.69.19,2.51.38,1.63.37,3.24.83,4.87,1.19,1.15.25,2.26.61,3.33,1.1.91.41,1.82.83,2.73,1.22,7.31,3.15,13.43,7.82,18.16,14.26,3.98,5.42,6.57,11.46,7.78,18.07.35,1.93.5,3.91.69,5.87.19,1.94.17,3.9-.13,5.83-.36,2.39-.84,4.77-1.28,7.14-.46,2.44-1.12,4.81-2.27,7.03-.78,1.5-1.59,3-2.39,4.49-.25.46-.51.91-.79,1.36-2.06,3.36-4.69,6.23-7.67,8.76-2.68,2.28-5.5,4.4-8.28,6.55-1.91,1.49-3.87,2.92-5.79,4.39-.28.21-.63.38-.78.78.35.08.66.15.99.23v2.61h-.86c-1.07,0-2.15.02-3.22-.01-.66-.02-1.21.18-1.74.56-3.1,2.19-6.19,4.4-9.34,6.52-2.73,1.84-5.02,4.11-7.03,6.68-6.35,8.14-9.46,17.31-8.85,27.68.21,3.64.86,7.19,2.01,10.64,2.3,6.91,5.83,13.07,11.26,18.03,3.31,3.02,6.96,5.51,11.05,7.37,3.13,1.42,6.42,2.34,9.7,3.27,1.48.42,3.04.54,4.56.81,4.03.72,8.06.58,12.06-.15,3.17-.58,6.23-1.61,9.22-2.81,4.25-1.7,8.28-3.85,12.26-6.09,7.73-4.35,14.4-10.04,20.38-16.57,7.6-8.3,13.24-17.8,17.32-28.27,3.68-9.46,5.35-19.31,5.66-29.41.08-2.6-.08-5.19-.27-7.79-.11-1.59-.19-3.19-.4-4.78-.32-2.37-.71-4.74-1.12-7.1-.79-4.67-2.09-9.2-3.77-13.61-2.86-7.49-6.76-14.43-11.4-20.94-5.44-7.63-12.07-14.12-19.68-19.57-11.4-8.17-23.91-13.68-37.86-15.73-3.43-.5-6.87-.95-10.33-1.12-3.22-.15-6.44-.07-9.65.29-.57.06-1.14.16-1.7.24-.25.04-.45.11-.35.46v.03ZM85.08,48.5c-.14,5.9,4.82,11.21,11.07,11.23,6.19.03,11.21-5.01,11.23-11.16.02-6.05-4.84-11.2-11.19-11.17-6.36.02-11.21,5.3-11.11,11.1ZM35.91,67.37c.64-.32.67-.39.43-.84-.1-.17-.21-.34-.32-.51-1.58-2.43-3.17-4.85-4.75-7.28-.12-.18-.22-.38-.32-.54.11-.27.2-.5.27-.69-.41-.71-.82-.24-1.25-.07.27-.38.47-.75.46-1.18-.37-.17-.76-.25-1.02-.47-.27-.24-.42-.62-.61-.93-1.22-1.95-2.43-3.9-3.65-5.84-.21-.34-.43-.67-.67-.99-.19-.25-.43-.46-.82-.42-.01.8.33,1.44.71,2.05.67,1.08,1.36,2.15,2.05,3.22.83,1.3,1.67,2.6,2.49,3.87-.48.91-.45,1.01.37,1.26.03.57.39.89,1.1.94,1.83,2.8,3.68,5.61,5.52,8.42h.01ZM21.41,55.45c.12.33.21.66.35.97.72,1.6,1.7,3.04,2.7,4.47.41.58.87,1.15.76,1.98.65-.06,1.08-.31,1.37-.78.2-.31.13-.55-.22-.61-.4-.07-.59-.32-.77-.63-.15-.26-.31-.51-.46-.77-.84-1.38-1.68-2.77-2.52-4.15-.37-.6-.52-.66-1.2-.48h0ZM23.04,65.1c-.6-.39-.78-.99-.99-1.58-.31-.87-.66-1.72-1.01-2.58-.12-.29-.23-.6-.64-.59-.19.58.05,1.07.17,1.57.31,1.32,1.02,2.52,1.14,3.92.51-.05.97-.18,1.32-.74h.01Z"/>
    <path class="cls-3" d="M45.51,64.14c.36-.24.27-.54.11-.85-.15-.29-.15-.54.13-.8,1.79-1.66,3.29-3.54,4.44-5.74.18.04.33.07.54.12-.08-.15-.14-.26-.2-.36-1.59-2.54-3.2-5.07-4.78-7.62-.29-.47-.54-.9-1.2-.76-.11.02-.25-.11-.48-.22.28-.3.5-.54.77-.83-.28.04-.51.08-.84.13.32-.76-.13-1.23-.47-1.74-1.42-2.15-2.84-4.29-4.25-6.44-.34-.52-.78-.73-1.39-.68-1.02.09-2.04.15-3.06.23-.27.02-.55.08-.81.15-1.15.33-2.21.88-3.25,1.44.17.64,5.16,8.82,6.1,10.01.23-.04.47-.13.71-.12.15,0,.36.1.43.22.07.11.04.38-.05.46-.47.44-.98.82-1.57,1.04-.08-.1-.15-.14-.14-.17.1-.59-.16-1.05-.47-1.52-1.89-2.85-3.76-5.72-5.64-8.58-.12-.19-.26-.37-.45-.64-2.11,2.12-3.76,4.47-4.66,7.46-.25-.25-.42-.41-.58-.58-.12-.13-.21-.29-.35-.38-.13-.09-.34-.18-.46-.13-.11.05-.21.29-.19.42.06.39.12.8.29,1.15.81,1.66.7,1.38.17,2.94-.4,1.17-.51,2.43-.75,3.66-.03.14-.06.27-.11.48-.3-.26-.53-.47-.78-.67s-.54-.29-.83-.07c-.29.22-.25.52-.12.81.22.48.42.96.67,1.42.24.44.32.89.23,1.37-.15.78-.31,1.57-.48,2.35-.01.06-.07.11-.13.2-.32-.2-.35-.55-.51-.81-.15-.25-.27-.57-.67-.44-.29.1-.47.42-.37.8.19.72.39,1.44.63,2.15.32.94.26,1.85-.06,2.88-.69-.26-1.31-.49-1.93-.74-.31-.13-.44-.39-.44-.72,0-.57-.02-1.15.03-1.72.18-2.04.33-4.08.58-6.11.52-4.22,1.54-8.3,3.62-12.04,1.14-2.06,2.52-3.97,4.24-5.59,2.15-2.03,4.74-3.19,7.61-3.79,2.66-.55,5.31-.44,7.95.08,1.29.26,2.56.62,3.85.93.09.02.19.02.29.03.32-.27.27-.64.31-.98.22-2.32.52-4.62,1.36-6.81,1.65-4.29,3.96-8.12,7.76-10.88,2.65-1.93,5.63-3.1,8.84-3.67,4.61-.81,9.09-.2,13.47,1.37.7.25,1.36.62,2.02.97.47.25.51.38.37.91-.15.58-.31,1.16-.49,1.73-.25.75-.48.85-1.23.53-.44-.18-.85-.41-1.29-.61-.53-.24-.63-.21-1.04.22-.74.78-1.12,1.77-1.51,2.74-.32.81-.6,1.64-.88,2.47-.17.48-.2.97-.09,1.47.35,1.63.72,3.27,1.01,4.91.37,2.05.49,4.12.06,6.18-.62,2.96-2.37,5-5.07,6.28-2.26,1.08-4.67,1.39-7.14,1.37-2.88-.03-5.64-.63-8.35-1.57-3.42-1.18-6.83-2.36-10.28-3.46-1.2-.39-2.48-.56-3.72-.82-.17-.03-.34-.02-.66-.04,1.66,2.49,3.27,4.89,4.85,7.26.37-.05.7-.16,1-.11.43.07.24.47.27.74.79.41.6.72-.03,1.25,1.75,2.71,3.51,5.43,5.31,8.22-.08-.32-.19-.58-.19-.84,0-.49-.04-1.01.1-1.48.34-1.14.47-2.29.34-3.47-.13-1.19-.13-2.4-.32-3.58-.18-1.1-.55-2.17-.84-3.26-.08-.3-.15-.61-.25-1.01.28.04.45.05.6.09,1.1.33,2.19.68,3.29,1.01.38.12.57.35.59.76.12,1.74.31,3.48.38,5.23.23,5.14-1.32,9.69-4.65,13.63-3.61,4.28-8.15,7.08-13.52,8.55-2.54.7-5.12,1.08-7.76,1.1-1.4,0-2.8.05-4.19-.02-2.36-.11-4.62-.76-6.83-1.55-.77-.28-1.54-.57-2.31-.88-.29-.12-.56-.3-.9-.49.38-1.15.75-2.26,1.15-3.47.38.18.72.31,1.03.5,1.74,1.06,3.65,1.59,5.64,1.88.09.01.19-.02.37-.04.03-.75-.23-1.36-.74-1.86-.46-.45-.44-.64.15-.9.24-.11.51-.17.86-.29-.1,1.04.41,1.84.65,2.72.12.45.39.66.86.67,1.35.04,2.69.1,4.04.14.29,0,.58-.05.96-.08-.16-.28-.26-.48-.38-.66-.9-1.32-1.79-2.65-2.72-3.95-.25-.35-.63-.6-.99-.93.17-.53.65-.8,1.23-1.03.07.12.2.24.18.33-.13.5.16.86.4,1.23.84,1.33,1.71,2.65,2.51,4,.42.7.95.94,1.74.84,2.44-.32,4.8-.86,7.06-1.88,1.71-.78,3.37-1.62,4.89-2.74.24-.18.5-.33.75-.49.31.16.6.31.89.46h.17v.02ZM56.45,20.94c.05-.2.1-.41.17-.73-.13.14-.2.18-.2.21,0,.17.01.34.02.51.26.37,0,.59-.24.82-1.46,1.33-2.57,2.92-3.48,4.66-.17.32-.39.61-.57.89-.66-.13-1.06-.77-1.75-.54-.07.7.29,1.19.72,1.6.33.31.37.6.25,1-.22.74-.42,1.49-.6,2.24-.43,1.73-.64,3.48-.57,5.27.02.48.19.81.65.99,1.46.58,2.9,1.21,4.38,1.75,2.62.96,5.38,1.24,8.14,1.51.18.02.36-.07.63-.13-.28-.33-.47-.62-.73-.85-1.61-1.48-2.89-3.31-4.76-4.53.15-.5.4-.9,1.01-1.09.1.86.61,1.46,1.17,2.04,1.17,1.2,2.34,2.4,3.45,3.64.44.49.91.64,1.52.54,1.19-.18,2.34-.5,3.41-1.06,1.77-.93,2.85-2.38,3.16-4.38.1-.66.23-1.32.34-1.99.1,0,.18-.03.25,0,.36.14.64.02.86-.27.24-.32.1-.62-.08-.9-.26-.4-.51-.8-.79-1.18-.24-.32-.34-.66-.31-1.05.05-.57.06-1.15.14-1.72.05-.4.19-.78.29-1.19-.33-.26-.33-.72-.4-1.12-.43-2.36-.83-4.72-1.24-7.08-.12-.68-.21-1.36-.32-2.09-2.12-.1-4.13-.04-6.18.57.15.35.25.61.37.84.65,1.18,1.3,2.36,1.96,3.54.4.72.79,1.45,1.19,2.17.22.4.51.67,1.03.55.15-.04.32.03.63.06-.18.27-.26.47-.41.6-.26.23-.56.43-.86.59-.16.08-.4.14-.54.08-.25-.11-.2-.36-.11-.59.04-.09.07-.17.1-.23-.36-.63-.69-1.21-1.02-1.8-.96-1.7-1.91-3.39-2.87-5.09-.35-.62-.37-.63-1.07-.42-1.3.38-2.54.88-3.68,1.63-.75.49-1.52.94-2.3,1.43.07.11.14.21.22.31,1.92,2.43,3.83,4.86,5.74,7.3.26.34.54.57,1.01.5.12-.02.25.11.37.17-.32.64-.88.99-1.59.99.23-.78-.34-1.21-.74-1.72-.64-.8-1.31-1.57-1.95-2.37-1.23-1.54-2.61-2.96-3.59-4.7-.04-.08-.15-.12-.23-.17h0ZM75.66,17.93c-.85-.85-2.66-1.28-3.67-.87.18,3.19.82,6.33,1.24,9.6.27-1.57.4-3.07.8-4.49.41-1.45,1.08-2.83,1.63-4.24Z"/>
    <path class="cls-3" d="M85.08,48.5c-.1-5.8,4.75-11.08,11.11-11.1,6.35-.02,11.21,5.13,11.19,11.17-.02,6.15-5.04,11.19-11.23,11.16-6.25-.03-11.2-5.34-11.07-11.23Z"/>
    <path class="cls-3" d="M35.91,67.37c-1.84-2.8-3.68-5.62-5.52-8.42-.71-.05-1.07-.37-1.1-.94-.82-.26-.85-.36-.37-1.26-.82-1.27-1.66-2.57-2.49-3.87-.69-1.07-1.38-2.14-2.05-3.22-.38-.61-.72-1.25-.71-2.05.39-.04.63.17.82.42.24.32.46.66.67.99,1.22,1.95,2.43,3.9,3.65,5.84.2.32.35.69.61.93.26.23.64.31,1.02.47.01.43-.19.81-.46,1.18.43-.17.84-.65,1.25.07-.07.19-.16.42-.27.69.09.16.2.36.32.54,1.58,2.43,3.17,4.85,4.75,7.28.11.17.22.33.32.51.25.45.22.51-.43.84h-.01Z"/>
    <path class="cls-3" d="M45.51,64.14h-.17c-.69-.52-1.17-1.21-1.63-1.92-1.88-2.88-3.77-5.76-5.65-8.64-.09-.14-.2-.28-.33-.47-.22.09-.44.18-.65.26-.28-.31-.31-.57-.1-.78.32-.32.62-.64.95-.95.22-.2.48-.28.74-.08.25.19.22.42.07.66-.04.06-.08.13-.11.2-.02.04-.02.09-.05.22,1.13,1.78,2.29,3.62,3.47,5.44,1.04,1.61,2.11,3.21,3.19,4.8.27.4.42.79.27,1.26Z"/>
    <path class="cls-3" d="M21.41,55.45c.68-.17.83-.12,1.2.48.85,1.38,1.68,2.77,2.52,4.15.16.26.31.51.46.77.18.31.37.56.77.63.36.06.42.3.22.61-.3.47-.72.72-1.37.78.11-.83-.35-1.4-.76-1.98-1-1.43-1.97-2.88-2.7-4.47-.14-.31-.23-.64-.35-.97h0Z"/>
    <path class="cls-3" d="M23.04,65.1c-.35.56-.81.69-1.32.74-.12-1.4-.83-2.6-1.14-3.92-.12-.5-.37-.99-.17-1.57.41,0,.52.31.64.59.34.86.69,1.71,1.01,2.58.21.59.39,1.18.99,1.58h-.01Z"/>
    <path class="cls-2" d="M96.35,172.31c.56-.48,1-.69,1.51-.7.55,0,1.12-.06,1.64.06,2.14.49,3.74-.33,4.9-2.05,1.28-1.89,2.98-3.29,4.96-4.35,2.9-1.56,5.65-3.39,8.68-4.72,2.1-.92,4.16-1.95,6.25-2.89,1.13-.51,2.12-1.21,3.03-2.04,1.07-.98,2.22-1.85,3.5-2.56,1.46-.81,2.62-1.99,3.68-3.26,1.06-1.26,2.11-2.54,3.2-3.77.53-.59,1.15-1.11,1.74-1.64.76-.69,1.68-1.08,2.68-1.24.54-.09,1-.3,1.41-.64.62-.51,1.24-1,2.05-1.19.17-.04.37-.21.43-.37.41-1.02.82-2.03,1.17-3.07.25-.73.12-1.49-.02-2.22-.23-1.2-.48-2.4-.73-3.6-.23-1.1-.54-1.22-1.43-.54-.35.27-.68.57-1.02.87-.24-.21-.45-.38-.69-.59-.19.12-.39.22-.57.35-.24.17-.49.35-.71.56-1.68,1.6-3.7,2.61-5.88,3.32-.23.07-.47.14-.76.23-.36-2.34-.08-4.45,1.56-6.2.71-.77,1.63-1.16,2.67-1.17,1.05,0,2.09.06,3.14.1.62.02,1.24.15,1.87-.16-.17-.31-.46-.29-.71-.31-.84-.1-1.69-.17-2.53-.28-1.64-.21-2.91-1.01-3.76-2.44-.37-.62-.7-1.27-.99-1.93-.42-.97-.88-1.9-1.57-2.71-.09-.11-.14-.25-.24-.45.27-.08.5-.16.73-.22.48-.12.98-.2,1.46-.34,2.51-.72,4.49.2,6.18,2.01.15.16.28.34.51.48-.04-.14-.06-.3-.14-.43-1.64-2.78-3.5-5.41-5.64-7.83-.18-.2-.39-.36-.52-.48-.7.44-1.3.85-1.92,1.22-.44.26-.9.05-1.01-.49-.06-.29-.14-.49-.4-.66-.65-.42-.67-.63-.25-1.27.07-.1.14-.2.24-.36-.19-.12-.34-.22-.5-.31-.31-.17-.5-.4-.45-.78.05-.35.28-.51.59-.59.12-.03.24-.05.4-.09.06-.13.15-.26.17-.4.05-.41.3-.59.66-.72.27-.09.54-.24.76-.44.31-.28.59-.32.95-.12.32.18.7.27,1,.48.52.37.96.83,1.61,1.04.32.1.31.54.12.93-.12.24-.29.5-.29.75-.02.55-.26.83-.78.93-.09.02-.17.09-.27.14-.05.45.28.68.51.95,1.75,2,3.28,4.16,4.75,6.36.44.66.78,1.39,1.16,2.09.18.33.35.65.55,1.03.51-.33.68-.84.97-1.25.31-.42.57-.88.89-1.38-1.07-.96-1.99-2.03-2.8-3.19.71-.43,1.36-.83,2.03-1.22.34-.2.68-.23,1.08-.12,1.4.4,2.58,1.06,3.28,2.41.1.18.26.33.41.51.33-.23.29-.5.2-.72-.12-.27-.26-.56-.47-.75-1.18-1.07-2.5-1.83-4.16-1.76-.51.02-.85-.17-1.14-.56-.91-1.22-1.52-2.56-1.77-4.08-.16-.96-.42-1.9-.62-2.85-.02-.07,0-.15.01-.29,1.31.17,2.58-.08,3.87-.27,1.24-.18,2.37.23,3.42.86.21.12.4.31.55.5,1.04,1.26,1.72,2.7,1.88,4.34.06.61-.09,1.24-.16,1.85-.05.42-.18.83-.21,1.25-.04.42.14.64.45.63.34-.01.48-.24.49-.55.05-2.04-.02-4.07-.94-5.93-.37-.75-.91-1.43-1.46-2.07-.34-.4-.5-.78-.41-1.29.07-.37.11-.74.16-1.11.25-1.65,1.22-2.81,2.63-3.77.13.35.29.65.35.97.26,1.45,1.09,2.36,2.49,2.8,1.01.32,1.8.94,2.36,1.85.82,1.34.62,2.74.2,4.12-.38,1.26-1.24,2.21-2.22,3.05-.32.28-.66.53-1,.79-.21.17-.46.33-.36.67.24.21.43.05.58-.11.9-.93,1.86-1.83,2.67-2.84.66-.82,1.4-1.08,2.36-.82.43.12.88.24,1.25.47,1.15.7,2.27,1.46,3.4,2.2.12.08.24.17.4.3-.17.27-.29.49-.43.68-.49.64-.98,1.26-1.47,1.89-.63.81-1.45,1.2-2.47,1.2-1.67,0-3.35.06-4.97-.45-.1-.03-.23.01-.38.15.21.1.42.21.64.29.59.21,1.17.43,1.77.62,1.65.53,2.45,1.7,2.64,3.4-.64.37-1.34.33-2.03.26-.83-.08-1.59-.36-2.32-.78-1.03-.6-2.1-1.14-3.1-1.67-.49.2-.6.56-.69.93-.22.87-.41,1.75-.67,2.61-.98,3.22-2,6.43-2.96,9.65-.53,1.79-.99,3.61-1.47,5.42-.04.14-.05.28-.09.53.22-.06.39-.07.52-.15,1.09-.62,2.13-1.29,2.89-2.33.23-.31.59-.52.96-.83-1.38-1.25-1.81-2.83-1.72-4.64.83-.17,1.38.43,2.15.54,0-.37.04-.7.02-1.03-.12-2,.49-3.78,1.56-5.46.12.01.23,0,.31.04.68.41,1.39.79,2.02,1.27,1.07.81,1.45,1.99,1.54,3.29.08,1.11.05,2.2-.4,3.24-.06.14-.11.28-.13.43-.1.57.16.93.75.96.32.02.65,0,.97-.06,2.19-.35,4.8.87,5.87,2.81.45.81.81,1.65,1.24,2.53-.15.06-.28.16-.4.15-1.02-.05-1.96.31-2.92.57-.72.2-1.45.38-2.18.54-1.62.36-3.01-.12-4.21-1.21-.65-.59-1.26-1.21-1.89-1.82-.19-.18-.36-.41-.74-.29.16.44.43.75.72,1.05.63.64,1.25,1.29,1.87,1.94.05.05.1.11.15.17,2.44,2.67,1.47,5.43-.13,7.21-.4.44-.86.83-1.31,1.22-.16.14-.36.23-.61.38-.53-1.24-1.02-2.4-1.34-3.63-.28-1.07-.42-2.14-.36-3.26.07-1.33-.17-2.64-.69-3.88-.08-.18-.17-.36-.29-.52-.31-.42-.67-.53-1.11-.27-1.05.63-2.08,1.29-3.09,1.97-.16.11-.25.43-.23.64.08.84-.07,1.64-.38,2.42-.25.62-.38,1.24-.17,1.9.21.63.05,1.24-.09,1.84-.46,2.05-1.41,3.89-2.55,5.63-1.52,2.31-3.41,4.3-5.41,6.2-.77.73-1.66,1.27-2.61,1.73-2.73,1.32-5.52,2.4-8.55,2.86-1.87.28-3.71.77-5.57,1.1-.93.17-1.88.2-2.83.27-1.54.11-3.11.07-4.63.31-3.33.53-6.42,1.64-8.85,4.15-.55.57-1.18,1.08-1.82,1.56-1.6,1.18-3.35,1.48-5.23.76-.74-.28-1.48-.57-2.37-.91l-.03-.04ZM124.71,163.29h.13c-.05.55-.1,1.11-.16,1.68.66-.1.69-.11.81-.6.14-.57.26-1.15.38-1.73.09.72-.21,1.41-.09,2.13.87.11.85-.59,1.12-1.11.03.31.05.54.07.76.64.02.75-.04.89-.56.08-.31.09-.64.32-1.01v1.27c.67.11.72.1.82-.42.05-.27.05-.55.07-.82.03-.28.06-.56.09-.85.05,0,.1,0,.16.01v1.96c.61-.05.68-.1.73-.64.05-.48.05-.96.08-1.45.35.58.09,1.19.16,1.76.56.06.63.02.73-.47.1-.5.18-.99.3-1.65.24.72-.11,1.31.2,1.85.35-.01.54-.15.58-.48.04-.35.08-.69.13-1.04.05-.34.1-.69.14-1.03.24.71-.13,1.43.17,2.14.49-.22.5-.22.55-.54.04-.25.02-.5.06-.75.11-.59.01-1.22.4-1.76v2.45c.7-.6.61-1.42,1.01-2.06v1.76c.87-.12.93-.19.94-.92,0-.42-.09-.86.27-1.23v1.54c.44.07.6-.17.65-.5.07-.44.11-.89.17-1.34.02-.17.07-.34.1-.51l.13.02c.06.55.12,1.09.18,1.69.53-.22.56-.59.59-.96.05-.6-.03-1.22.25-1.9.25.71-.08,1.4.27,2.05.66-.65.44-1.51.79-2.2.06.4.12.81.19,1.23.51-.28.53-.3.55-.82.02-.59,0-1.17,0-1.76h.14c.09.57.18,1.13.29,1.86.72-.74.62-1.54.77-2.29.07.33.13.66.2.99.52-.19.61-.33.56-.87-.03-.4-.07-.79-.11-1.19.04,0,.09-.01.13-.02.11.36.22.73.35,1.15.77-.65.25-1.44.45-2.15.14.31.28.61.42.94.68-.5.29-1.1.32-1.7.2.26.34.45.49.66.42-.4.38-.87.34-1.33.63,0,.83-.28.57-.77-.19-.36-.43-.7-.65-1.04l.12-.08c.28.32.56.63.85.96.47-.62.47-.73.09-1.3-.19-.28-.5-.52-.42-.99.32.36.59.66.93,1.05.15-.82-.27-1.38-.38-2.02.38.19.35.71.83.8.13-.39.11-.75-.06-1.09-.13-.27-.28-.53-.41-.8-.01-.03.02-.08.04-.12.16.03.31.06.54.11-.15-.95-.54-1.67-1.27-2.18-.37-.26-.77-.46-1.14-.71-.82-.57-1.66-.57-2.55-.17-1.45.64-2.59,1.67-3.6,2.87-.12.14-.21.31-.37.54.3.06.51.12.73.15.74.12,1.36.47,1.94.92.15.12.33.26.11.52-.24-.1-.5-.2-.74-.3-.5-.22-1-.45-1.51-.65-.7-.26-.98-.19-1.44.38-.49.6-.95,1.22-1.42,1.84-.11.15-.19.33-.32.57.75.21,1.45.42,1.93,1,.45.54.87,1.1.93,1.84-.24-.19-.43-.42-.62-.64-.54-.64-1.17-1.16-1.95-1.48-.53-.22-1.02-.18-1.47.2-.27.23-.54.45-.81.66-1.25.99-1.19.89-.71,2.29.09.25.19.51-.06.74-.66-.29-.44-1.32-1.27-1.45-.21.47.29,1-.18,1.47-.12-.17-.23-.3-.32-.45-.43-.77-.56-.8-1.23-.26-1.02.81-2.03,1.62-3.04,2.43-.15.12-.29.27-.4.37,0,.5.72.91.07,1.44-.13-.42-.24-.8-.36-1.21-.22.07-.39.1-.54.18-3.29,1.62-6.59,3.23-9.85,4.89-1.67.85-3.27,1.82-4.9,2.74-1.58.89-2.99,2-4.21,3.33-.66.72-1.26,1.49-1.96,2.17-.99.96-2.17,1.38-3.57,1.05-.31-.08-.64-.15-.96-.17-.31-.02-.66-.11-.93.31.29.07.54.16.8.2.59.07,1.19.1,1.79.17,1.24.15,2.33-.2,3.27-.99.69-.58,1.36-1.18,2.01-1.8,1.61-1.55,3.5-2.65,5.59-3.39.53-.19,1.06-.3,1.29-.95.06.45.29.54.65.47.29-.06.59-.1.89-.14.46-.07.88-.21,1.09-.67.03-.06.11-.09.16-.13.12.17.23.33.35.5.41-.15.78-.29,1.14-.42.49.29.89.23,1.2-.18.18.15.34.41.54.44.3.05.35-.28.44-.51.05-.12.11-.23.23-.46.06.42.1.7.14,1,.57-.06.6-.54.83-.87.07.27.12.5.18.73.78.08.54-.67.9-1.01v.82c.81.2.75-.52,1.02-.93.02.32.04.56.06.8.5.1.69-.14.79-.53.12-.47.26-.93.38-1.39.03,0,.07.02.1.03-.08.61-.16,1.21-.24,1.83.51.15.67-.13.76-.46.12-.43.2-.87.3-1.3v-.04ZM147.94,135.77c.08-.09.17-.15.2-.23.91-2.03,1.66-4.12,2.17-6.29.06-.25,0-.52,0-.76-1.11.22-2.14.42-3.2.63,0,.5.01.97,0,1.44-.02.44-.13.89-.09,1.33.11,1.02.28,2.03.45,3.03.05.31.13.63.47.84h0ZM155.35,114.15c.09-.45.15-.74.21-1.03.35-1.77.04-3.38-1.21-4.73-.77-.83-1.28-1.77-1.46-2.89-.04-.24-.05-.54-.42-.71-.12.52-.15,1,.02,1.43.24.62.52,1.23.85,1.82.36.65.81,1.26,1.17,1.91.28.52.44,1.09.36,1.84-.85-1.03-1.57-2.04-2.81-2.43.16.35.37.64.61.91.4.45.84.86,1.21,1.32.79.98,1.01,2.09.61,3.3-.06.18-.09.36-.14.61,1.96-1.23,2.78-1.94,2.99-2.72-.7.42-1.22.91-1.98,1.36h0ZM144.52,109.16c-.05.06-.09.12-.14.18.39.28.78.59,1.19.85,1.64,1.06,2.96,2.44,3.95,4.11.36.6.68,1.22,1.03,1.82.13.22.21.5.55.59.01-.14.06-.25.02-.33-.5-1.16-.45-2.38-.48-3.6-.03-1.03-.49-1.92-1.2-2.67-.09-.1-.26-.13-.49-.24.27.66.51,1.18.68,1.72.17.52.34,1.05.17,1.71-1.6-1.71-2.91-3.63-5.28-4.15h0ZM145.14,127.9c.07-.03.13-.06.2-.09-.02-.13,0-.28-.06-.39-.25-.46-.49-.93-.79-1.35-1.22-1.67-2.77-3-4.49-4.13-.88-.58-1.86-.95-2.94-.97-.12,0-.24.07-.36.1,1.7.81,3.31,1.69,4.84,2.72,1.56,1.05,2.52,2.64,3.61,4.12h-.01ZM154.14,138.2c.02.07.04.14.07.21.54-.05,1.08-.09,1.61-.15,2.05-.22,4.02.05,5.9.92.77.35,1.53.72,2.31,1.07.23.11.48.17.72.26.03-.05.06-.1.09-.15-.12-.15-.2-.33-.35-.44-.5-.36-1-.76-1.55-1.03-2.63-1.29-5.42-1.37-8.25-.95-.19.03-.37.17-.55.26h0ZM164.06,116.46c-.01-.06-.02-.12-.04-.18-1.56-.3-7.9,1.71-8.74,2.86.47-.15.85-.24,1.22-.38.82-.32,1.65-.32,2.5-.22.57.06,1.14.09,1.71.11.12,0,.24-.08.36-.13v-.14c-.71-.12-1.42-.23-2.13-.35v-.12c1.71-.48,3.42-.96,5.13-1.44h0ZM136.86,133.85c.26-.3.53-.58.77-.9.97-1.3,2.28-2.06,3.83-2.44.58-.14,1.16-.28,1.74-.44.15-.04.28-.14.51-.27-3.3-.31-6.85,2.21-6.85,4.05h0ZM154.01,141.3s-.09.06-.13.09c.28.55.59,1.08.84,1.64.25.57.52,1.14.65,1.75.14.63.12,1.29.19,1.93.06.6-.31,1.18-.09,1.84,1.32-1.85.23-5.67-1.46-7.24h0ZM150.39,122.37s-.06-.1-.08-.14c-.18.02-.38,0-.55.05-1.71.54-2.79,1.74-3.46,3.36-.1.25-.15.55.1.93.86-1.94,2.19-3.29,3.98-4.2h.01ZM154.58,136.44c1.35-1.04,1.51-4.6.27-5.59.08.92.26,1.85.21,2.76-.05.94-.31,1.88-.49,2.83h0ZM161.06,114c-.37-.29-.69-.14-.99.04-.92.54-1.7,1.23-2.24,2.15-.12.2-.2.43-.3.64.03.02.06.03.09.05,1.13-.95,2.27-1.9,3.45-2.89h-.01ZM143.63,143.61c.04.06.06.15.11.18.79.45,1.58.89,2.37,1.33.28-.44.29-.6-.06-.91s-.73-.6-1.13-.85c-.51-.32-.78-.25-1.3.24h.01ZM159.47,141.39c-.41-.47-3.38-2.14-3.98-2.24.51,1,2.96,2.37,3.98,2.24ZM156.42,111.91c1.27-.68,1.78-2.57,1-3.45-.34,1.18-.67,2.32-1,3.45ZM139.63,125.81c.94,1.05,3.21,1.82,4.01,1.38-1.35-.53-2.65-1.04-4.01-1.38ZM162.91,140.99c-.64-.73-2.89-1.8-3.64-1.73,1.05.95,2.17,1.56,3.64,1.73ZM137.6,122.91c.99.87,2.11,1.4,3.44,1.42-1.06-.68-2.19-1.19-3.44-1.42ZM151.45,124.8c-.08-.03-.15-.07-.23-.1-.49.42-1.04.76-1.48,1.36.3.12.56.19.79.31.36.17.59.04.69-.29.11-.41.16-.85.23-1.27h0ZM145.68,118.15c.75.53,1.49,1.05,2.24,1.58.06.04.12.09.19.12.25.13.46.13.62-.13-.64-.77-1.91-1.46-3.05-1.57h0ZM148.46,114.81c.03-.07.06-.14.09-.21-.35-.16-.7-.32-1.05-.47-.39-.17-.77-.34-1.17-.47-.34-.11-.65-.42-1.2-.25,1.02.93,2.11,1.32,3.33,1.4h0ZM144.73,142.63c.64.35,1.21.67,1.82,1,.12-.77-.05-1.19-.52-1.41-.45-.22-.82-.12-1.29.41h-.01ZM142.58,123.58c-.1-1.24-1.08-2.3-2.34-2.53.81.88,1.54,1.66,2.34,2.53ZM162.28,137.5c-.76-.64-2.41-.65-3.18.02,1.1.06,2.12.25,3.18-.02ZM156.95,132.44c-.38.85-.74,1.7-1,2.68,1.02-.66,1.36-1.59,1-2.68ZM146.3,124.13c.63-.48,1.25-1.7,1.2-2.36-.85.57-1.16,1.36-1.2,2.36ZM155.31,120.99c1.01.66,2.07,1.21,3.27,1.46-.99-.7-2.06-1.24-3.27-1.46ZM147.44,127.07c.62.49,1.83.47,2.34-.03-.79-.3-1.55-.24-2.34.03ZM153.56,131.1c-.05,1.01.4,1.66,1.14,1.7-.24-.66-.49-1.27-1.14-1.7ZM150.96,123.66c-.92-.37-1.4-.28-2.02.35.73.22,1.34.05,2.02-.35ZM151.67,134.33c.3.98.8,1.54,1.51,1.75-.29-.74-.72-1.31-1.51-1.75ZM138.2,130.66c-.88.08-1.29.4-1.49,1.16.6-.24,1.12-.53,1.49-1.16ZM156.58,145.67c.07.58.13,1.16.21,1.79.53-.59.48-1.32-.21-1.79ZM153.79,145.02c.18-.44.36-.87.59-1.44-.77.48-.86.65-.59,1.44ZM156.25,143c-.09-.78-.25-.91-1.12-.92.42.34.74.61,1.12.92ZM141.29,131.32c-.36.31-.63.65-.48,1.21.48-.3.65-.68.48-1.21ZM141.62,129.38c-.46-.52-.59-.54-1.2-.19.57.31.59.31,1.2.19ZM135.95,113.55c.1.19.21.33.43.16.05-.04.07-.21.03-.25-.18-.19-.33-.11-.45.09h-.01ZM137.35,110.72c-.17.13-.33.24-.13.46.04.04.16.07.19.04.21-.17.13-.33-.06-.5ZM136.25,111.99c-.1-.11-.18-.24-.21-.23-.1.03-.18.12-.27.19.06.07.11.2.17.2.1,0,.19-.09.32-.16h0ZM136.33,110.75c.04-.06.08-.12.12-.18-.12-.06-.23-.12-.35-.16-.01,0-.06.11-.1.16.11.06.22.12.33.18h0ZM137.21,109.76c.13.07.21.16.28.15.08,0,.14-.1.21-.16-.08-.07-.15-.17-.25-.19-.04-.01-.13.1-.24.21h0ZM134.39,112.71c-.06-.02-.13-.04-.19-.05-.02.12-.05.24-.07.36,0,0,.12.04.12.03.05-.11.09-.22.14-.34ZM137.2,112.25c-.06.17-.12.26-.11.34.01.07.1.17.17.18.05.01.17-.08.18-.14,0-.06-.08-.14-.23-.39h-.01ZM138.62,111.92c-.1-.09-.17-.2-.22-.19-.07.01-.18.11-.18.17,0,.07.08.18.15.2.05.01.13-.09.25-.18h0ZM134.92,111.78c.07-.18.14-.27.11-.33-.03-.07-.14-.11-.21-.16-.03.06-.1.13-.09.19.01.08.09.14.19.3h0ZM138.85,110.36c-.09.08-.19.12-.19.16,0,.08.06.16.1.25.07-.04.18-.08.19-.13.01-.07-.06-.16-.11-.27h.01ZM134.92,110.12c.08-.1.19-.16.19-.23s-.1-.14-.15-.21c-.06.07-.13.14-.16.22-.01.04.06.11.12.21h0ZM135.86,109.11c.22.14.31.23.35.21.07-.02.16-.12.16-.19,0-.06-.1-.16-.17-.17-.08,0-.17.06-.34.14h0Z"/>
    <path class="cls-2" d="M85.18,137.29c.01-6.08,5-10.99,11.14-10.96,6.11.03,11.1,5.04,10.93,11.38-.16,5.88-4.94,10.69-11.01,10.72-6.1.03-11.07-5-11.06-11.14Z"/>
    <path class="cls-2" d="M56.45,20.94c.08.06.19.1.23.17.98,1.73,2.36,3.16,3.59,4.7.64.8,1.31,1.58,1.95,2.37.41.5.98.94.74,1.72.71,0,1.26-.34,1.59-.99-.13-.06-.26-.18-.37-.17-.46.06-.74-.17-1.01-.5-1.91-2.44-3.83-4.87-5.74-7.3-.08-.1-.14-.2-.22-.31.78-.48,1.55-.94,2.3-1.43,1.14-.75,2.38-1.25,3.68-1.63.69-.2.72-.2,1.07.42.96,1.69,1.91,3.39,2.87,5.09.33.59.67,1.17,1.02,1.8-.02.06-.06.14-.1.23-.09.22-.14.48.11.59.15.06.39,0,.54-.08.31-.17.6-.37.86-.59.15-.13.23-.33.41-.6-.31-.03-.48-.1-.63-.06-.51.12-.8-.14-1.03-.55-.4-.72-.79-1.45-1.19-2.17-.65-1.18-1.31-2.36-1.96-3.54-.13-.23-.22-.49-.37-.84,2.05-.6,4.06-.67,6.18-.57.11.72.21,1.41.32,2.09.41,2.36.81,4.72,1.24,7.08.07.4.07.86.4,1.12-.1.41-.24.8-.29,1.19-.08.57-.09,1.14-.14,1.72-.03.39.07.73.31,1.05.28.38.53.79.79,1.18.18.28.32.59.08.9-.22.29-.5.41-.86.27-.06-.02-.14,0-.25,0-.12.66-.24,1.32-.34,1.99-.31,2-1.38,3.44-3.16,4.38-1.07.56-2.22.88-3.41,1.06-.61.09-1.08-.05-1.52-.54-1.12-1.24-2.28-2.45-3.45-3.64-.57-.58-1.07-1.18-1.17-2.04-.61.19-.86.59-1.01,1.09,1.87,1.22,3.16,3.04,4.76,4.53.25.23.45.53.73.85-.26.06-.45.14-.63.13-2.76-.26-5.52-.55-8.14-1.51-1.48-.54-2.92-1.17-4.38-1.75-.45-.18-.63-.51-.65-.99-.07-1.79.14-3.54.57-5.27.19-.75.38-1.5.6-2.24.12-.4.07-.68-.25-1-.43-.41-.79-.9-.72-1.6.69-.22,1.09.42,1.75.54.18-.28.4-.57.57-.89.91-1.74,2.02-3.33,3.48-4.66.25-.23.5-.44.24-.82h0v.02ZM70.92,37.85c-.27-.39-.49-.73-.72-1.04-1.25-1.65-2.53-3.28-3.77-4.94-.55-.74-1.3-1.37-1.43-2.37-.9.22-1.38.72-1.3,1.37.52-.14.8.19,1.09.56.47.61.97,1.2,1.46,1.81,1.12,1.41,2.24,2.81,3.34,4.23.32.42.68.65,1.33.38h0ZM57.77,34.93c.46,0,.8-.21.9-.64.1-.38-.07-.66-.46-.63-.35.03-.55-.13-.77-.35-1.9-1.94-3.81-3.87-5.72-5.8-.29-.3-.62-.54-1.1-.51.03.49.31.77.59,1.05,1.84,1.83,3.68,3.65,5.5,5.5.37.38.65.84,1.06,1.38h0ZM68.68,26.6c.47.36.88.85,1.23,1.47.51.91,1.01,1.83,1.54,2.73.48.81,1,1.59,1.5,2.37.7-.36.73-.44.44-.97-.08-.15-.19-.29-.28-.44-1.07-1.74-2.13-3.48-3.17-5.17-.04-.35.45-.59.05-.95-.57.14-1.04.4-1.31.96h0Z"/>
    <path class="cls-2" d="M75.66,17.93c-.56,1.41-1.23,2.79-1.63,4.24-.4,1.43-.53,2.93-.8,4.49-.42-3.27-1.06-6.41-1.24-9.6,1.01-.42,2.83.02,3.67.87Z"/>
    <path class="cls-1" d="M56.45,20.94c0-.17-.02-.34-.02-.51,0-.04.06-.07.2-.21-.08.32-.12.52-.17.73h-.01Z"/>
    <path class="cls-3" d="M147.94,135.77c-.34-.21-.42-.53-.47-.84-.17-1.01-.34-2.02-.45-3.03-.05-.43.07-.88.09-1.33.02-.47,0-.94,0-1.44,1.06-.21,2.09-.41,3.2-.63,0,.24.05.51,0,.76-.5,2.17-1.26,4.26-2.17,6.29-.04.08-.12.14-.2.23h0Z"/>
    <path class="cls-3" d="M155.35,114.15c.75-.45,1.27-.94,1.98-1.36-.21.78-1.03,1.49-2.99,2.72.06-.25.09-.43.14-.61.4-1.21.18-2.32-.61-3.3-.37-.46-.82-.87-1.21-1.32-.24-.27-.45-.56-.61-.91,1.24.38,1.96,1.4,2.81,2.43.08-.75-.08-1.32-.36-1.84-.35-.66-.81-1.26-1.17-1.91-.32-.58-.61-1.2-.85-1.82-.17-.44-.14-.91-.02-1.43.38.17.39.47.42.71.18,1.12.69,2.06,1.46,2.89,1.25,1.35,1.57,2.96,1.21,4.73-.06.29-.12.58-.21,1.03h0Z"/>
    <path class="cls-3" d="M144.52,109.16c2.37.52,3.68,2.45,5.28,4.15.17-.66,0-1.2-.17-1.71-.18-.54-.42-1.06-.68-1.72.23.11.4.14.49.24.71.75,1.17,1.64,1.2,2.67.04,1.22-.01,2.44.48,3.6.03.08-.01.19-.02.33-.34-.09-.42-.37-.55-.59-.35-.6-.67-1.22-1.03-1.82-1-1.68-2.31-3.06-3.95-4.11-.41-.26-.79-.57-1.19-.85.05-.06.09-.12.14-.18h0Z"/>
    <path class="cls-3" d="M145.14,127.9c-1.09-1.48-2.05-3.07-3.61-4.12-1.53-1.03-3.14-1.91-4.84-2.72.12-.04.24-.1.36-.1,1.08.02,2.06.4,2.94.97,1.72,1.13,3.27,2.45,4.49,4.13.31.42.54.89.79,1.35.06.11.04.26.06.39-.07.03-.13.06-.2.09h.01Z"/>
    <path class="cls-3" d="M164.06,116.46c-1.71.48-3.42.96-5.12,1.44v.12c.71.12,1.42.23,2.13.35v.14c-.12.05-.24.14-.36.13-.57-.02-1.14-.04-1.71-.11-.85-.09-1.69-.1-2.5.22-.36.14-.74.23-1.22.38.84-1.15,7.18-3.17,8.74-2.86.01.06.02.12.04.18h0Z"/>
    <path class="cls-3" d="M136.86,133.85c0-1.84,3.55-4.36,6.85-4.05-.23.13-.36.23-.51.27-.58.16-1.16.3-1.74.44-1.55.38-2.86,1.14-3.83,2.44-.24.32-.51.6-.77.9h0Z"/>
    <path class="cls-3" d="M150.39,122.37c-1.79.92-3.13,2.27-3.98,4.2-.25-.38-.21-.68-.1-.93.66-1.62,1.75-2.82,3.46-3.36.17-.05.36-.04.55-.05.03.05.06.1.08.14h-.01Z"/>
    <path class="cls-3" d="M154.58,136.44c.17-.95.44-1.89.49-2.83.05-.92-.13-1.84-.21-2.76,1.24,1,1.08,4.55-.27,5.59h0Z"/>
    <path class="cls-3" d="M161.06,114c-1.19.99-2.32,1.94-3.45,2.89-.03-.02-.06-.03-.09-.05.1-.21.18-.44.3-.64.54-.93,1.32-1.62,2.24-2.15.3-.18.62-.33.99-.04h.01Z"/>
    <path class="cls-2" d="M143.63,143.61c.52-.49.78-.56,1.3-.24.4.25.78.54,1.13.85s.33.47.06.91c-.79-.44-1.59-.88-2.37-1.33-.05-.03-.07-.12-.11-.18h-.01Z"/>
    <path class="cls-3" d="M156.42,111.91c.33-1.14.66-2.27,1-3.45.78.88.27,2.78-1,3.45Z"/>
    <path class="cls-3" d="M139.63,125.81c1.36.34,2.66.86,4.01,1.38-.8.44-3.07-.33-4.01-1.38Z"/>
    <path class="cls-3" d="M137.6,122.91c1.25.23,2.38.74,3.44,1.42-1.33-.02-2.45-.55-3.44-1.42Z"/>
    <path class="cls-3" d="M151.45,124.8c-.07.42-.12.86-.23,1.27-.09.34-.33.47-.69.29-.23-.11-.49-.19-.79-.31.44-.6.99-.94,1.48-1.36.08.03.15.07.23.1h0Z"/>
    <path class="cls-3" d="M145.68,118.15c1.14.11,2.4.79,3.05,1.57-.16.26-.38.26-.62.13-.07-.03-.13-.08-.19-.12-.75-.53-1.49-1.05-2.24-1.58h0Z"/>
    <path class="cls-3" d="M148.46,114.81c-1.22-.08-2.31-.47-3.33-1.4.54-.17.85.14,1.2.25.4.13.78.31,1.17.47.35.15.7.31,1.05.47-.03.07-.06.14-.09.21h0Z"/>
    <path class="cls-3" d="M142.58,123.58c-.8-.87-1.52-1.65-2.34-2.53,1.26.23,2.24,1.29,2.34,2.53Z"/>
    <path class="cls-3" d="M162.28,137.5c-1.05.27-2.07.08-3.18.02.76-.67,2.41-.65,3.18-.02Z"/>
    <path class="cls-3" d="M156.95,132.44c.37,1.09.02,2.02-1,2.68.26-.99.62-1.83,1-2.68Z"/>
    <path class="cls-3" d="M146.3,124.13c.05-1,.35-1.8,1.2-2.36.04.66-.58,1.88-1.2,2.36Z"/>
    <path class="cls-3" d="M155.31,120.99c1.21.22,2.27.76,3.27,1.46-1.19-.25-2.25-.8-3.27-1.46Z"/>
    <path class="cls-3" d="M147.44,127.07c.79-.27,1.55-.33,2.34-.03-.51.5-1.72.52-2.34.03Z"/>
    <path class="cls-3" d="M153.56,131.1c.65.43.91,1.04,1.14,1.7-.74-.04-1.19-.69-1.14-1.7Z"/>
    <path class="cls-3" d="M150.96,123.66c-.69.41-1.29.58-2.02.35.62-.64,1.1-.72,2.02-.35Z"/>
    <path class="cls-3" d="M151.67,134.33c.79.44,1.22,1.01,1.51,1.75-.71-.21-1.21-.77-1.51-1.75Z"/>
    <path class="cls-3" d="M138.2,130.66c-.38.64-.9.92-1.49,1.16.21-.76.61-1.08,1.49-1.16Z"/>
    <path class="cls-3" d="M141.29,131.32c.16.53,0,.91-.48,1.21-.15-.56.13-.91.48-1.21Z"/>
    <path class="cls-3" d="M141.62,129.38c-.61.12-.63.12-1.2-.19.61-.35.74-.33,1.2.19Z"/>
    <path class="cls-3" d="M135.95,113.55c.13-.2.28-.28.45-.09.04.04.02.21-.03.25-.21.17-.33.03-.43-.16h.01Z"/>
    <path class="cls-3" d="M137.35,110.72c.19.17.27.33.06.5-.03.03-.16,0-.19-.04-.2-.22-.04-.33.13-.46Z"/>
    <path class="cls-3" d="M136.25,111.99c-.14.07-.23.16-.32.16-.05,0-.11-.13-.17-.2.09-.07.17-.16.27-.19.04-.01.12.12.21.23h0Z"/>
    <path class="cls-3" d="M136.33,110.75c-.11-.06-.22-.12-.33-.18.03-.06.08-.17.1-.16.12.04.24.1.35.16-.04.06-.08.12-.12.18h0Z"/>
    <path class="cls-3" d="M137.21,109.76c.12-.1.2-.22.24-.21.09.03.17.13.25.19-.07.06-.14.15-.21.16-.07,0-.15-.07-.28-.15h0Z"/>
    <path class="cls-3" d="M134.39,112.71c-.04.11-.09.23-.14.34,0,0-.12-.02-.12-.03.02-.12.04-.24.07-.36.06.02.13.04.19.05Z"/>
    <path class="cls-3" d="M137.2,112.25c.16.25.24.32.23.39,0,.06-.13.15-.18.14-.07-.02-.15-.11-.17-.18-.01-.08.05-.17.11-.34h.01Z"/>
    <path class="cls-3" d="M138.62,111.92c-.12.09-.2.19-.25.18-.07-.02-.16-.13-.15-.2,0-.06.11-.16.18-.17.05,0,.12.1.22.19h0Z"/>
    <path class="cls-3" d="M134.92,111.78c-.1-.16-.18-.22-.19-.3-.01-.05.06-.12.09-.19.07.05.18.09.21.16.02.05-.05.15-.11.33h0Z"/>
    <path class="cls-3" d="M138.85,110.36c.05.12.12.2.11.27-.01.05-.12.09-.19.13-.04-.08-.09-.16-.1-.25,0-.04.09-.08.19-.16h-.01Z"/>
    <path class="cls-3" d="M134.92,110.12c-.06-.1-.14-.17-.12-.21.03-.08.1-.15.16-.22.05.07.15.14.15.21,0,.06-.1.13-.19.23h0Z"/>
    <path class="cls-3" d="M135.86,109.11c.18-.08.26-.15.34-.14.07,0,.17.11.17.17,0,.07-.09.16-.16.19-.05.02-.13-.07-.35-.21h0Z"/>
    <path class="cls-3" d="M70.92,37.85c-.65.27-1.01.03-1.33-.38-1.11-1.42-2.23-2.82-3.34-4.23-.48-.61-.98-1.2-1.46-1.81-.28-.37-.57-.7-1.09-.56-.08-.65.4-1.16,1.3-1.37.13.99.88,1.62,1.43,2.37,1.24,1.66,2.51,3.29,3.77,4.94.24.31.45.64.72,1.04h0Z"/>
    <path class="cls-3" d="M57.77,34.93c-.41-.54-.69-1.01-1.06-1.38-1.82-1.85-3.66-3.67-5.5-5.5-.28-.28-.56-.56-.59-1.05.47-.02.8.22,1.1.51,1.91,1.93,3.82,3.86,5.72,5.8.22.22.42.38.77.35.39-.03.56.24.46.63-.11.43-.44.64-.9.64h0Z"/>
    <path class="cls-3" d="M68.68,26.6c.27-.56.74-.82,1.31-.96.41.35-.08.6-.05.95,1.04,1.69,2.1,3.43,3.17,5.17.09.15.2.29.28.44.3.53.26.61-.44.97-.5-.78-1.02-1.56-1.5-2.37-.53-.9-1.03-1.82-1.54-2.73-.35-.62-.76-1.11-1.23-1.47h0Z"/>
    <path class="cls-2" d="M136.38,155.14c-.68-.63-1.36-1.25-2.05-1.9.13-.34.37-.54.67-.3.59.49,1.16,1.02,1.43,1.78.03.09.04.19.04.29,0,.04-.05.08-.08.12h0Z"/>
    <path class="cls-2" d="M129.58,159.44c-.35-1-.54-1.84-.44-2.83.18.1.29.13.32.19.16.32.25,2.03.12,2.64h0Z"/>
    <path class="cls-2" d="M138.71,150.5c-.49-.31-1-.55-1.31-1.06.52-.17,1.13.05,1.5.5.21.25.06.39-.2.57h.01Z"/>
    <path class="cls-2" d="M139.55,145.81c.09-.34.29-.46.56-.39.35.09.52.34.46.71-.33-.1-.65-.2-1.02-.32h0Z"/>
    <path class="cls-2" d="M121.32,160.1c.57.5.57.51.25,1.23-.35-.35-.35-.74-.25-1.23Z"/>
    <path class="cls-2" d="M114.67,163.77c-.05.55-.09.93-.13,1.46-.4-.62-.38-.79.13-1.46Z"/>
    <path class="cls-2" d="M122.64,161.66v-1.22c.45.57.45.81,0,1.22Z"/>
    <path class="cls-2" d="M141.94,146.33c-.1-.19-.19-.38-.34-.68.52.08.63.27.53.59-.06.03-.13.06-.19.09Z"/>
    <path class="cls-2" d="M134.42,154.77c.19.3.24.5-.03.73-.24-.22-.2-.42.03-.73Z"/>
    <path class="cls-2" d="M118.58,161.55c.26.24.3.44.05.7-.26-.23-.25-.44-.05-.7Z"/>
    <path class="cls-2" d="M141.15,145.17c-.11-.13-.23-.26-.34-.39.04-.03.08-.07.11-.1.11.13.23.26.34.39-.04.03-.08.07-.11.1Z"/>
  </g>
</svg>