<svg width="146" height="141" viewBox="0 0 146 141" fill="none" xmlns="http://www.w3.org/2000/svg">
<path d="M72.763 140.57C70.363 140.55 68.773 138.86 68.713 136.24C68.703 135.63 68.703 135.02 68.703 134.39C52.513 133.14 38.573 126.71 27.243 115.26C15.743 103.64 9.35301 89.71 8.20301 73.82H5.77301C5.60301 73.82 4.87301 73.84 4.67301 73.84C4.43301 73.84 4.20301 73.84 3.96301 73.82C1.67301 73.67 0.0830113 72.16 0.00301135 70.07C-0.0369887 69.04 0.323011 68.07 0.993011 67.34C1.74301 66.53 2.86301 66.07 4.13301 66.02C4.64301 66 5.15301 66 5.66301 66H8.19301C9.28301 50.16 15.723 36.2 27.323 24.51C38.613 13.13 52.533 6.73004 68.703 5.48004C68.703 4.90004 68.703 4.34004 68.703 3.77004C68.743 0.460039 70.913 -0.709961 72.753 -0.709961H72.943C73.833 -0.669961 76.743 -0.259961 76.853 3.69004C76.873 4.25004 76.873 4.81004 76.873 5.40004C93.043 6.47004 106.933 12.88 118.193 24.47C129.913 36.54 136.383 50.47 137.433 65.91H139.303C139.533 65.91 139.763 65.9 139.993 65.89C140.283 65.88 140.573 65.87 140.863 65.87C141.263 65.87 141.623 65.89 141.953 65.93C144.183 66.22 145.633 67.88 145.563 70.06C145.493 72.12 144.183 73.6 142.143 73.93C141.763 73.99 141.363 74.02 140.873 74.02C140.663 74.02 140.463 74.02 140.253 74.02C140.083 74.02 139.903 74.02 139.733 74.02H137.453C136.423 89.37 129.983 103.25 118.303 115.31C107.023 126.96 93.093 133.41 76.883 134.47C76.883 135.09 76.883 135.7 76.863 136.31C76.753 139.46 74.693 140.58 72.803 140.58H72.763V140.57ZM16.323 74.01C16.363 74.42 16.413 74.83 16.463 75.25C16.593 76.35 16.763 77.46 16.943 78.54C17.313 80.68 17.793 82.8 18.373 84.84C22.793 100.36 34.003 113.79 48.373 120.77C53.423 123.22 58.433 124.91 63.283 125.78C65.263 126.14 66.963 126.31 68.493 126.31C68.583 126.31 68.673 126.31 68.763 126.31C68.763 126.31 68.763 125.11 68.753 124.7C68.733 123.3 68.713 121.85 68.843 120.4C69.023 118.24 70.313 115.92 72.693 115.92C72.933 115.92 73.183 115.95 73.423 116C75.483 116.43 76.603 118.23 76.773 121.36C76.823 122.31 76.803 123.23 76.773 124.12C76.753 124.87 76.733 125.58 76.763 126.28C77.103 126.26 77.443 126.24 77.783 126.22C82.903 125.82 87.983 124.63 92.873 122.66C102.133 118.94 110.463 112.62 116.963 104.37C123.313 96.33 127.353 87.22 128.653 78.03C128.813 76.87 128.933 75.72 129.003 74.59C129.013 74.38 129.033 74.17 129.043 73.96C128.763 73.96 128.483 73.94 128.213 73.93C126.483 73.87 125.153 73.85 123.913 73.85C123.043 73.85 122.173 73.86 121.303 73.89C121.193 73.89 121.073 73.89 120.963 73.89C120.573 73.89 120.143 73.87 119.683 73.85C119.253 73.83 118.803 73.8 118.353 73.8C117.823 73.8 117.453 73.84 117.213 73.89C117.213 74.05 117.203 74.21 117.203 74.31C117.203 74.65 117.183 74.94 117.153 75.13C115.603 85.92 110.523 95.74 102.873 102.78C95.173 109.86 85.023 113.98 74.293 114.38C73.743 114.4 73.193 114.41 72.643 114.41C66.343 114.41 60.073 113.03 54.513 110.43C49.043 107.87 43.913 104.07 39.673 99.44C35.863 95.28 32.943 90.5 30.983 85.24C30.003 82.6 29.243 79.8 28.733 76.91C28.613 76.22 28.503 75.53 28.413 74.84C28.373 74.57 28.343 74.3 28.313 74.03H16.333L16.323 74.01ZM36.613 73.82C38.153 85.46 43.453 94.07 52.773 100.11C59.333 104.36 66.083 106.51 72.813 106.52C78.733 106.52 84.733 104.85 90.633 101.55C100.993 95.76 106.993 86.68 108.923 73.83H106.963H105.973C105.483 73.83 104.893 73.83 104.283 73.75C102.113 73.5 100.723 72.17 100.563 70.18C100.393 68.08 101.943 66.41 104.313 66.1C104.883 66.03 105.433 66.02 105.853 66.02H106.863H108.833C107.833 55.97 101.273 43.59 89.823 37.83C84.023 34.91 78.233 33.43 72.613 33.43C65.383 33.43 58.253 35.88 51.403 40.72C42.913 46.72 38.053 55.01 36.603 66.03H37.913C37.913 66.03 39.043 66.03 39.283 66.03C39.923 66.03 40.413 66.06 40.893 66.11C43.053 66.37 44.463 67.95 44.403 70.04C44.343 72.13 42.953 73.56 40.783 73.79C40.393 73.83 39.993 73.84 39.593 73.84H38.713H36.593L36.613 73.82ZM117.233 65.76C118.853 65.88 121.373 65.95 124.083 65.95C126.353 65.95 128.033 65.9 129.153 65.84C128.003 52.01 121.603 38.98 111.013 28.98C101.163 19.69 88.473 14.03 76.843 13.71C76.843 15.26 76.853 16.85 76.813 18.43C76.793 19.44 76.683 20.61 76.113 21.64C75.643 22.48 74.343 23.82 72.833 23.82H72.683L72.463 23.79C71.153 23.6 69.793 22.53 69.223 21.26C68.773 20.26 68.783 19.21 68.793 18.36C68.793 18.2 68.793 18.05 68.793 17.89C68.773 16.44 68.773 14.99 68.783 13.55C41.953 15.06 18.213 38.78 16.453 65.84H28.173C30.703 42.85 49.293 25.98 73.053 25.43C73.373 25.43 73.683 25.42 74.003 25.42C82.943 25.42 91.623 28.42 99.123 34.09C109.553 41.98 115.643 52.62 117.233 65.75V65.76Z" fill="white"/>
</svg>
