<svg width="137" height="140" viewBox="0 0 137 140" fill="none" xmlns="http://www.w3.org/2000/svg">
<g filter="url(#filter0_d_255652_4026)">
<path d="M35.8058 43.9092C54.2826 61.7415 72.6237 79.4268 91.1005 97.259C90.0602 98.3446 89.0199 99.4414 87.9683 100.527C81.9865 106.69 76.0274 112.875 70.0116 118.992C66.0313 123.041 61.3386 126.026 55.9448 127.88C54.4974 128.378 53.1066 129.068 51.6479 129.497C36.1111 134.032 21.298 129.045 11.7316 116.64C6.7336 110.15 3.72575 102.755 4.01975 94.5339C4.41552 83.2261 7.66084 72.8683 15.825 64.5005C22.3835 57.7725 28.8402 50.9426 35.3535 44.158C35.4665 44.0336 35.6588 43.9883 35.8058 43.9092Z" fill="#FFFDFD"/>
<path d="M92.0956 89.4222C95.0356 86.3239 97.8173 83.3726 100.622 80.4326C106.502 74.2925 112.393 68.175 118.273 62.0462C122.966 57.15 126.019 51.3604 127.15 44.6889C129.095 33.2115 126.516 22.9102 118.386 14.3842C113.546 9.3183 107.316 6.64967 100.463 5.54152C89.0991 3.70966 79.0917 6.74013 70.8936 14.7912C63.1591 22.39 55.7413 30.3054 48.1764 38.0738C46.729 39.5552 45.2703 41.0139 43.7212 42.5743C42.5791 41.4888 41.5501 40.5163 40.3401 39.3629C40.7472 38.8202 41.0978 38.2322 41.5614 37.7459C49.6125 29.446 57.6862 21.1575 65.7486 12.8576C71.8548 6.57052 79.2048 2.46581 87.81 0.973194C103.302 -1.72935 118.352 3.51743 127.692 17.9461C132.543 25.4544 133.606 33.9465 132.713 42.71C131.808 51.5979 127.862 59.1514 121.846 65.5629C113.626 74.3264 105.167 82.8751 96.8109 91.5142C96.4378 91.8986 96.0194 92.2379 95.6236 92.5997C94.4476 91.5368 93.3508 90.5304 92.1182 89.4109L92.0956 89.4222Z" fill="#FFFDFD"/>
<path d="M96.1777 55.4416C96.811 50.5906 98.7107 46.6781 103.256 44.5296C104.342 44.0208 105.382 43.5911 106.818 44.0886C106.038 50.8733 102.883 55.9165 96.4152 59.1618C95.9855 58.1441 95.5897 57.2282 95.194 56.3123C93.5883 57.0021 93.2264 57.9406 94.1876 59.1845C94.5607 59.6707 95.1035 60.0552 95.6463 60.3605C99.8188 62.7238 104.15 63.8206 108.854 62.0001C109.261 61.8418 109.702 61.74 110.199 61.593C105.902 67.1112 97.8174 67.9593 90.2638 63.7754C82.5293 68.9769 74.286 66.0143 70.136 61.5138C70.9615 61.7513 71.5608 61.8983 72.1375 62.1018C76.8868 63.8659 81.195 62.5542 85.2997 60.1569C85.9442 59.7838 86.5549 59.0488 86.8036 58.359C87.1768 57.3187 86.8489 56.3914 85.4919 56.1766C85.1188 57.1151 84.7343 58.0424 84.3612 58.9809C78.3228 56.6289 74.3312 50.862 73.9241 43.9756C77.2712 43.3423 79.578 45.5813 81.2855 47.5488C83.0721 49.6181 83.7732 52.626 85.0396 55.4416H96.223H96.1777Z" fill="#FFFDFD"/>
<path d="M78.0061 34.7162C77.6443 37.317 77.3503 39.3976 77.0563 41.5574C67.6822 43.5928 64.3803 48.0367 65.5111 57.3656C61.1237 49.0544 64.4482 39.6351 71.278 36.1071C69.6836 30.6341 70.6561 25.4778 73.9806 20.7964C76.0725 17.8451 80.2564 14.8825 84.2254 14.3623C82.5744 15.7532 80.867 16.85 79.6457 18.3426C78.4132 19.8352 77.3164 21.6332 76.7736 23.4763C76.2082 25.41 76.2082 27.5697 76.2647 29.6164C76.3213 31.5953 76.6605 33.5968 77.9948 34.7275L78.0061 34.7162Z" fill="#FFFDFD"/>
<path d="M96.4265 14.5308C106.456 16.8037 111.33 25.0357 109.351 36.0947C113.083 38.1188 115.39 41.3302 116.52 45.4122C117.674 49.6187 116.713 53.599 115.175 57.5567C115.978 53.5651 115.401 49.9353 112.958 46.6109C110.539 43.3203 107.271 41.7825 103.55 41.6581C103.234 39.3965 102.951 37.3159 102.601 34.7943C104.896 31.7299 104.964 27.7383 103.969 23.7014C102.928 19.5175 99.9998 16.7245 96.4491 14.5195L96.4265 14.5308Z" fill="#FFFDFD"/>
<path d="M101.956 34.1045C96.4039 29.31 84.576 29.2874 78.6847 33.9349C77.2486 30.9722 77.3504 30.4295 79.8042 28.5411C85.4015 24.2215 94.9113 24.1763 100.622 28.4393C103.109 30.3051 103.222 30.7235 101.945 34.1045H101.956Z" fill="#FFFDFD"/>
<path d="M100.35 39.4077C100.384 41.6128 98.5071 43.7499 96.483 43.8291C94.572 43.8969 92.4009 41.7371 92.2878 39.6565C92.1861 37.5985 94.2667 35.2691 96.2229 35.2578C98.3148 35.2578 100.316 37.2706 100.35 39.4191V39.4077Z" fill="#FFFDFD"/>
<path d="M88.2963 39.5783C88.2284 41.6363 86.0687 43.8526 84.1577 43.8187C82.0318 43.7735 80.1095 41.5119 80.2339 39.1939C80.3469 37.068 82.5067 35.1118 84.5647 35.2588C86.4418 35.3945 88.3528 37.6108 88.2963 39.5783Z" fill="#FFFDFD"/>
<path d="M90.2977 42.8125C91.5529 44.7461 92.6724 46.1596 93.4413 47.7314C94.3007 49.4841 93.5657 50.3095 91.5642 50.1851C90.6709 50.1286 89.7776 50.1512 88.8843 50.2078C87.0863 50.3208 86.2948 49.4614 87.075 47.8557C87.8779 46.2161 89.0313 44.7461 90.2864 42.8125H90.2977Z" fill="#FFFDFD"/>
</g>
<defs>
<filter id="filter0_d_255652_4026" x="0" y="0.290039" width="137" height="138.856" filterUnits="userSpaceOnUse" color-interpolation-filters="sRGB">
<feFlood flood-opacity="0" result="BackgroundImageFix"/>
<feColorMatrix in="SourceAlpha" type="matrix" values="0 0 0 0 0 0 0 0 0 0 0 0 0 0 0 0 0 0 127 0" result="hardAlpha"/>
<feOffset dy="4"/>
<feGaussianBlur stdDeviation="2"/>
<feComposite in2="hardAlpha" operator="out"/>
<feColorMatrix type="matrix" values="0 0 0 0 0 0 0 0 0 0 0 0 0 0 0 0 0 0 0.25 0"/>
<feBlend mode="normal" in2="BackgroundImageFix" result="effect1_dropShadow_255652_4026"/>
<feBlend mode="normal" in="SourceGraphic" in2="effect1_dropShadow_255652_4026" result="shape"/>
</filter>
</defs>
</svg>
